<?xml version="1.0" encoding="UTF-8" standalone="no"?>
<!-- Created with Inkscape (http://www.inkscape.org/) -->

<svg
   xmlns:dc="http://purl.org/dc/elements/1.1/"
   xmlns:cc="http://creativecommons.org/ns#"
   xmlns:rdf="http://www.w3.org/1999/02/22-rdf-syntax-ns#"
   xmlns:svg="http://www.w3.org/2000/svg"
   xmlns="http://www.w3.org/2000/svg"
   xmlns:xlink="http://www.w3.org/1999/xlink"
   xmlns:sodipodi="http://sodipodi.sourceforge.net/DTD/sodipodi-0.dtd"
   xmlns:inkscape="http://www.inkscape.org/namespaces/inkscape"
   width="1000"
   height="1000"
   id="svg2"
   version="1.1"
   inkscape:version="0.91 r13725"
   sodipodi:docname="FartletV2.2_monochrome.svg"
   inkscape:export-filename="/Users/josiah/Desktop/UVR/Logos/FartletV2.2_monochrome.png"
   inkscape:export-xdpi="90"
   inkscape:export-ydpi="90">
  <defs
     id="defs4" />
  <sodipodi:namedview
     id="base"
     pagecolor="#ffffff"
     bordercolor="#666666"
     borderopacity="1.0"
     inkscape:pageopacity="0.0"
     inkscape:pageshadow="2"
     inkscape:zoom="0.5"
     inkscape:cx="640.81191"
     inkscape:cy="471.18306"
     inkscape:document-units="px"
     inkscape:current-layer="layer3"
     showgrid="false"
     inkscape:object-nodes="false"
     inkscape:snap-nodes="true"
     inkscape:snap-smooth-nodes="true"
     inkscape:window-width="1243"
     inkscape:window-height="756"
     inkscape:window-x="25"
     inkscape:window-y="403"
     inkscape:window-maximized="0"
     inkscape:snap-object-midpoints="false"
     inkscape:snap-global="true"
     fit-margin-top="25"
     fit-margin-left="75"
     fit-margin-right="75"
     fit-margin-bottom="25"
     inkscape:object-paths="false"
     inkscape:snap-grids="false"
     inkscape:snap-to-guides="false"
     inkscape:snap-midpoints="false"
     inkscape:snap-center="false"
     showguides="true"
     inkscape:guide-bbox="true"
     inkscape:snap-others="false">
    <inkscape:grid
       type="xygrid"
       id="grid3867"
       empspacing="5"
       visible="true"
       enabled="true"
       snapvisiblegridlinesonly="true"
       originx="-3176.6245"
       originy="-6.5364741" />
  </sodipodi:namedview>
  <metadata
     id="metadata7">
    <rdf:RDF>
      <cc:Work
         rdf:about="">
        <dc:format>image/svg+xml</dc:format>
        <dc:type
           rdf:resource="http://purl.org/dc/dcmitype/StillImage" />
        <dc:title />
      </cc:Work>
    </rdf:RDF>
  </metadata>
  <g
     inkscape:groupmode="layer"
     id="layer5"
     inkscape:label="Background"
     style="display:none"
     transform="translate(-3176.6209,-33.472701)">
    <rect
       style="color:#000000;display:inline;overflow:visible;visibility:visible;fill:#cccccc;stroke:none;stroke-width:1px;marker:none;enable-background:accumulate"
       id="rect3890"
       width="1000"
       height="1040"
       x="-0.00359869"
       y="0.0091786403" />
  </g>
  <g
     inkscape:groupmode="layer"
     id="layer4"
     inkscape:label="Fire"
     style="display:inline"
     transform="translate(-3179.8084,-40.378951)" />
  <g
     inkscape:label="Text"
     inkscape:groupmode="layer"
     id="layer1"
     style="display:none"
     transform="translate(-3179.8084,-40.378951)">
    <path
       inkscape:connector-curvature="0"
       id="path4305"
       d="m 503.1839,14.415301 c -272.0002,0 -492.500006,220.499799 -492.500006,492.499999 0,272.0003 220.499806,492.5 492.500006,492.5 272.0002,0 492.50001,-220.4997 492.50001,-492.5 0,-272.0002 -220.49981,-492.499999 -492.50001,-492.499999 z m 0,124.999999 c 202.9646,0 367.50001,164.5354 367.50001,367.5 0,202.9647 -164.53541,367.5 -367.50001,367.5 -202.9646,0 -367.5,-164.5353 -367.5,-367.5 0,-202.9646 164.5354,-367.5 367.5,-367.5 z"
       style="color:#000000;display:inline;overflow:visible;visibility:visible;fill:#ffffff;fill-opacity:1;stroke:#000000;stroke-width:15;stroke-miterlimit:4;stroke-opacity:1;marker:none;enable-background:accumulate"
       inkscape:export-filename="/Users/josiah/Desktop/UVicRocketry/Logos/martletlogo_FLogie.png"
       inkscape:export-xdpi="87.949982"
       inkscape:export-ydpi="87.949982" />
    <text
       inkscape:transform-center-y="-259.57672"
       inkscape:export-ydpi="87.949982"
       inkscape:export-xdpi="87.949982"
       inkscape:export-filename="/Users/josiah/Desktop/UVicRocketry/Logos/martletlogo_FLogie.png"
       sodipodi:linespacing="125%"
       id="text4307"
       style="font-style:normal;font-variant:normal;font-weight:bold;font-stretch:normal;font-size:33.96358109px;line-height:125%;font-family:'Tamil MN';-inkscape-font-specification:'Tamil MN Bold';letter-spacing:0px;word-spacing:0px;display:inline;fill:#000000;fill-opacity:1;stroke:none"
       xml:space="preserve"
       transform="matrix(0.89934064,0.43724866,-0.43724866,0.89934064,272.29847,-168.9906)"
       inkscape:transform-center-x="184.29282"><textPath
         xlink:href="#path3900"
         id="textPath3059"
         style="font-style:normal;font-variant:normal;font-weight:bold;font-stretch:normal;font-size:110px;font-family:'BankGothic Md BT';-inkscape-font-specification:'BankGothic Md BT Bold';letter-spacing:-2px"><tspan
   style="letter-spacing:-6px"
   id="tspan3887">F</tspan>uséologie</textPath></text>
    <text
       inkscape:transform-center-y="-189.43229"
       inkscape:transform-center-x="-368.93929"
       inkscape:export-ydpi="87.949982"
       inkscape:export-xdpi="87.949982"
       inkscape:export-filename="/Users/josiah/Desktop/UVicRocketry/Logos/martletlogo_FLogie.png"
       xml:space="preserve"
       style="font-style:normal;font-variant:normal;font-weight:bold;font-stretch:normal;font-size:126.73275757px;line-height:125%;font-family:'Tamil MN';-inkscape-font-specification:'Tamil MN Bold';letter-spacing:0px;word-spacing:0px;display:inline;fill:#000000;fill-opacity:1;stroke:none"
       id="text4311"
       sodipodi:linespacing="125%"
       transform="matrix(-0.89021208,0.45554632,-0.45554632,-0.89021208,1182.0477,728.95382)"><textPath
         xlink:href="#path3900"
         id="textPath3056"
         style="font-style:normal;font-variant:normal;font-weight:bold;font-stretch:normal;font-size:110px;font-family:'BankGothic Md BT';-inkscape-font-specification:'BankGothic Md BT Bold';letter-spacing:-2px"><tspan
   style="letter-spacing:-6px"
   id="tspan3885">UV</tspan>ic</textPath></text>
    <g
       id="g3002"
       transform="translate(344.28571,87.142857)" />
    <g
       id="g2996"
       transform="translate(345.71429,44.285714)" />
    <flowRoot
       xml:space="preserve"
       id="flowRoot3103"
       style="font-style:normal;font-variant:normal;font-weight:bold;font-stretch:normal;font-size:100px;line-height:125%;font-family:'BankGothic Lt BT';-inkscape-font-specification:'BankGothic Lt BT Bold';letter-spacing:0px;word-spacing:0px;fill:#000000;fill-opacity:1;stroke:none"><flowRegion
         id="flowRegion3105"><rect
           id="rect3107"
           width="521.23871"
           height="103.03556"
           x="2913.28"
           y="1112.9713"
           style="font-size:100px" /></flowRegion><flowPara
         id="flowPara3109" /></flowRoot>    <text
       inkscape:transform-center-y="333.57088"
       sodipodi:linespacing="125%"
       id="text4315"
       style="font-style:normal;font-variant:normal;font-weight:bold;font-stretch:normal;font-size:16px;line-height:125%;font-family:'BankGothic Lt BT';-inkscape-font-specification:'BankGothic Lt BT Bold';letter-spacing:0px;word-spacing:0px;fill:#000000;fill-opacity:1;stroke:none"
       xml:space="preserve"
       transform="matrix(0.95149806,0.30765473,-0.30765473,0.95149806,180.36029,-130.22054)"
       inkscape:transform-center-x="-1.9266314"
       inkscape:export-filename="/Users/josiah/Desktop/UVicRocketry/Logos/martletlogo_FLogie.png"
       inkscape:export-xdpi="87.949982"
       inkscape:export-ydpi="87.949982"><textPath
         xlink:href="#path3902"
         id="textPath3062"><tspan
   id="tspan4319"
   style="font-style:normal;font-variant:normal;font-weight:bold;font-stretch:normal;font-size:110px;font-family:'BankGothic Md BT';-inkscape-font-specification:'BankGothic Md BT Bold';letter-spacing:6px"
   dx="0 0 0 0 0 0">UVic Rocketry</tspan></textPath></text>
    <text
       inkscape:transform-center-x="419.95322"
       transform="matrix(0.77714596,0.62932039,-0.62932039,0.77714596,431.14872,-203.69577)"
       xml:space="preserve"
       style="font-style:normal;font-variant:normal;font-weight:bold;font-stretch:normal;font-size:16px;line-height:125%;font-family:'BankGothic Lt BT';-inkscape-font-specification:'BankGothic Lt BT Bold';letter-spacing:0px;word-spacing:0px;fill:#000000;fill-opacity:1;stroke:none"
       id="text3855"
       sodipodi:linespacing="125%"
       inkscape:transform-center-y="83.650878"
       inkscape:export-filename="/Users/josiah/Desktop/UVicRocketry/Logos/martletlogo_FLogie.png"
       inkscape:export-xdpi="87.949982"
       inkscape:export-ydpi="87.949982"><textPath
         id="textPath3857"
         xlink:href="#path3902"><tspan
   style="font-style:normal;font-variant:normal;font-weight:bold;font-stretch:normal;font-size:110px;font-family:'BankGothic Md BT';-inkscape-font-specification:'BankGothic Md BT Bold';letter-spacing:6px"
   id="tspan3859"
   dx="0">-</tspan></textPath></text>
    <text
       inkscape:transform-center-y="83.650878"
       sodipodi:linespacing="125%"
       id="text3875"
       style="font-style:normal;font-variant:normal;font-weight:bold;font-stretch:normal;font-size:16px;line-height:125%;font-family:'BankGothic Lt BT';-inkscape-font-specification:'BankGothic Lt BT Bold';letter-spacing:0px;word-spacing:0px;fill:#000000;fill-opacity:1;stroke:none"
       xml:space="preserve"
       transform="matrix(-0.77714596,0.62932039,0.62932039,0.77714596,575.21908,-203.69577)"
       inkscape:transform-center-x="-419.95322"
       inkscape:export-filename="/Users/josiah/Desktop/UVicRocketry/Logos/martletlogo_FLogie.png"
       inkscape:export-xdpi="87.949982"
       inkscape:export-ydpi="87.949982"><textPath
         xlink:href="#path3902"
         id="textPath3877"><tspan
   dx="0"
   id="tspan3879"
   style="font-style:normal;font-variant:normal;font-weight:bold;font-stretch:normal;font-size:110px;font-family:'BankGothic Md BT';-inkscape-font-specification:'BankGothic Md BT Bold';letter-spacing:6px">-</tspan></textPath></text>
  </g>
  <g
     inkscape:groupmode="layer"
     id="layer6"
     inkscape:label="Text2"
     transform="translate(-3176.6245,-33.463521)">
    <flowRoot
       xml:space="preserve"
       id="flowRoot4328"
       style="font-style:normal;font-variant:normal;font-weight:bold;font-stretch:normal;font-size:16px;line-height:125%;font-family:'BankGothic Lt BT';-inkscape-font-specification:'BankGothic Lt BT Bold';letter-spacing:0px;word-spacing:0px;fill:#000000;fill-opacity:1;stroke:none;stroke-width:1px;stroke-linecap:butt;stroke-linejoin:miter;stroke-opacity:1"><flowRegion
         id="flowRegion4330"><rect
           id="rect4332"
           width="379.00925"
           height="188.09041"
           x="-1951.6147"
           y="733.11566" /></flowRegion><flowPara
         id="flowPara4334" /></flowRoot>  </g>
  <g
     inkscape:groupmode="layer"
     id="layer3"
     inkscape:label="Bird"
     style="display:inline"
     transform="translate(-3179.8084,-40.378951)">
    <path
       style="display:inline;fill:#000000;fill-opacity:1;stroke:none"
       d="M 744.33398 32.394531 C 737.39853 32.439665 730.76498 33.07567 725.79297 34.328125 C 687.07757 44.036574 657.30453 86.509373 643.36523 151.43945 L 639.69141 168.55859 L 639.28516 168.86133 C 632.39437 154.48092 615.00207 126.99698 579.07617 116.28711 C 546.62377 106.61273 476.75412 105.56836 403.95312 178.80664 C 392.78371 189.4686 382.87975 200.87605 374.08398 212.77734 C 354.4001 208.92355 335.0677 206.19186 316.26172 204.69531 C 305.14512 203.81062 294.30874 203.35383 283.77734 203.32031 C 198.02194 203.04738 132.41345 230.72932 99.09375 282.03906 C 61.68025 339.6491 68.03723 422.32879 116.76562 511.89062 C 139.80005 554.2256 171.41889 596.45468 209.58008 636.51562 C 154.1492 715.68123 140.82031 782.78125 140.82031 782.78125 C 161.96801 798.15098 158.75556 819.23461 90.726562 970 C 90.726562 970 328.38291 884.04818 410.44531 790.61914 C 410.44806 790.61601 410.45038 790.6125 410.45312 790.60938 C 502.10576 841.56647 598.28875 873.2843 683.73633 880.08398 C 785.37353 888.17244 863.4929 860.35102 900.9043 802.74023 C 938.3179 745.13002 931.96072 662.45074 883.23242 572.88867 C 879.39642 565.83849 875.29644 558.7928 870.99414 551.75781 C 856.60064 571.4692 843.16884 586.89686 832.21484 598.31445 C 852.64244 648.09332 854.09117 693.61069 832.10938 727.45898 C 781.35189 805.61828 622.97607 794.97802 462.43359 708.36523 C 471.47143 685.54695 476.0457 662.40462 474.18945 640.37695 C 494.45465 662.52213 533.14844 680.78906 533.14844 680.78906 C 533.14844 680.78906 540.72816 629.59951 545.22266 600.98047 C 550.00437 570.58243 566.58064 523.00838 578.03906 492.32812 C 592.62973 481.84651 607.91916 473.20425 625.13867 469.54688 C 640.30907 466.32148 665.50463 467.69143 674.04883 480.63867 C 687.00983 500.33811 657.28916 557.51052 636.31836 591.48828 C 601.95876 647.15896 552.9375 704.33398 552.9375 704.33398 C 607.0285 697.53893 665.85207 685.06236 728.26367 644.34961 C 795.07327 600.76802 866.02021 515.81374 892.13281 440.4082 C 907.74911 395.31404 922.04243 341.79931 903.76562 297.73047 C 884.25344 250.68101 853.19775 232.38497 820.06445 231.08398 C 818.34961 202.8466 818.83715 183.87216 836.32422 161.23633 C 846.17502 148.48535 867.54122 131.386 888.10352 120.58203 C 892.58862 118.24067 896.1007 116.16104 895.9082 115.98633 C 895.7237 115.77223 889.7286 112.55818 882.5957 108.78516 C 861.7219 97.743646 841.38984 83.338028 828.40234 70.423828 C 821.87944 63.930568 813.11344 56.244083 808.93164 53.339844 C 798.43134 46.04918 781.63365 38.254137 769.68555 35.097656 C 762.66549 33.256235 753.251 32.336502 744.33398 32.394531 z M 756.38281 62.425781 C 764.95511 62.449281 780.8981 66.017031 789.25 69.775391 C 793.0723 71.495421 809.09446 82.686383 824.84766 94.664062 C 840.59996 106.62631 854.45628 116.97612 855.64258 117.64844 C 856.79818 118.33959 857.47685 119.08014 857.12305 119.34766 C 856.78425 119.61359 849.56243 124.68477 841.08203 130.63281 C 820.62323 144.97278 807.49775 158.59636 800.71875 172.49609 C 794.18965 185.89608 789.74378 197.13496 787.95898 221.66602 C 787.56459 227.05328 787.3 231.22838 787.08594 234.84961 C 727.84051 249.69971 697.75195 296.61523 697.75195 296.61523 C 697.75195 296.61523 745.27803 263.31171 787.76953 263.91211 C 826.26863 264.45608 849.72546 283.3496 862.97656 312.28125 C 877.48856 343.98679 867.71367 392.35877 856.01367 425.13477 C 827.03977 506.23425 787.84166 555.70872 718.91406 612.32422 C 668.88836 653.41406 605.86328 669.75391 605.86328 669.75391 C 605.86328 669.75391 638.79426 637.92985 670.41406 584.14258 C 692.32876 546.86385 718.58932 505.9387 704.29102 461.82422 C 695.28042 434.02426 654.29733 424.36586 632.08203 427.41797 C 594.41913 432.59243 562.39745 460.35717 534.00195 485.63867 C 496.22055 519.23525 469.43792 563.79378 441.89062 606.18359 C 424.86202 632.40567 410.78711 678.62891 410.78711 678.62891 C 410.78711 678.62891 390.87148 626.78288 411.17578 566.76562 C 422.46758 533.38847 438.58203 500.74414 438.58203 500.74414 C 438.58203 500.74414 397.76811 515.73446 360.25781 520.52539 C 309.17301 527.05007 288.12891 512.4707 288.12891 512.4707 C 288.12891 512.4707 376.64822 474.06156 428.51172 434.9707 C 473.09722 401.35775 495.46152 372.35823 520.13672 345.17773 C 543.55752 319.41431 564.68243 296.15867 583.61523 272.92383 C 602.54523 249.67256 622.35341 227.03904 627.31641 222.27148 C 642.72171 207.47257 658.4412 196.52487 667.7832 190.08203 L 672.81641 186.61523 L 673.73438 173.4043 C 675.61377 146.36841 683.34579 117.32833 693.08789 100.88086 C 707.28419 76.878759 731.19701 62.361361 756.38281 62.425781 z M 761.19922 95.462891 C 750.21434 95.657354 738.97327 99.916493 728.9082 111.0957 C 735.1744 109.31222 741.45994 107.5604 748.77344 107.54297 C 744.94564 119.72506 748.28111 130.92885 755.09961 139.04883 C 771.36061 139.49288 798.40658 129.9004 811.36328 118.91797 C 802.20951 109.53508 782.17034 95.091642 761.19922 95.462891 z M 547.87305 138.13281 C 556.61495 138.09361 564.59363 139.35564 570.97852 142.26562 C 598.81134 154.96057 608.53005 177.4512 611.85742 189.61914 C 588.54127 208.23035 572.52845 225.16606 553.56445 250.71484 C 539.1072 267.06019 527.04376 285.34504 514.24414 302.89453 C 500.11363 287.19268 465.35912 288.16857 432.9375 302.10547 C 381.1738 324.3828 335.40039 383.32812 335.40039 383.32812 C 344.26729 339.06974 362.88115 294.22489 381.99805 262.20508 C 405.67505 222.56999 434.3217 185.92601 479.75 158.12305 C 498.20693 146.83043 525.53263 138.23301 547.87305 138.13281 z M 311.93164 256.59961 C 323.0281 256.50228 334.59764 257.05428 346.55664 258.23438 C 314.81236 322.6954 307.11091 392.21921 305.06445 435.21875 C 305.06445 435.21875 370.15159 370.28238 413.93359 345.01758 C 445.47401 326.81856 477.56743 319.07498 487.60742 336.08203 C 465.63781 362.37341 443.63478 389.9061 383.32812 434.0625 C 314.40263 484.54255 241.91797 506.48242 241.91797 506.48242 C 241.91797 506.48242 259.53922 530.13032 310.07812 542.47461 C 313.58966 543.33103 317.51823 544.12239 321.62695 544.86133 C 305.29647 548.96452 289.29757 555.92916 274.5625 565.76367 C 185.9137 471.40428 148.18906 371.00306 188.24023 309.32812 C 211.00023 274.28187 255.40222 257.09545 311.93164 256.59961 z M 542.88672 520.76562 C 538.09577 534.02088 533.1799 548.88705 529.875 562.21289 C 522.5918 591.6191 518.29297 652.3457 518.29297 652.3457 C 518.29297 652.3457 493.17488 628.29275 487.95898 611.39453 C 485.83912 604.53049 484.71145 597.16835 484.15234 590.14258 C 501.55861 565.18029 520.62645 541.18497 542.88672 520.76562 z M 362.27148 552.60352 C 367.08718 552.65122 371.8607 553.00495 376.56641 553.65625 C 376.48679 554.25065 376.37623 555.11818 376.21484 556.35938 C 366.24514 556.40564 356.00662 557.97024 346.00586 560.69141 C 327.71245 565.66897 309.75847 574.49691 294.4043 585.95117 C 291.26731 582.89775 288.18918 579.8334 285.1582 576.76172 C 308.86488 560.82028 336.15305 552.34471 362.27148 552.60352 z M 373.81836 576.42969 C 372.32768 589.99943 370.79882 606.40652 370.56641 618.46094 C 370.32273 631.13934 371.69072 642.56716 374.06641 652.76758 C 350.75298 635.84621 329.09692 618.13377 309.27344 599.97852 C 321.99414 591.05895 336.73151 583.94226 351.25586 579.99023 C 359.04023 577.87211 366.64071 576.66793 373.81836 576.42969 z M 456.28906 633.28516 C 458.08402 653.41209 453.83275 675.5635 444.38281 698.29883 C 441.37123 696.56775 438.35924 694.80755 435.34961 693.02344 C 441.99626 679.91218 446.73838 666.86348 449.26953 654.04883 C 450.01476 650.27589 450.54221 646.51446 450.86328 642.77734 C 452.6521 639.58655 454.45989 636.42284 456.28906 633.28516 z M 222.38086 649.62109 C 226.02475 653.26358 229.72108 656.88419 233.4707 660.48438 C 216.23238 689.66122 208.87891 711.09375 208.87891 711.09375 L 203.14844 727.80664 L 220.42578 724.11719 C 228.63368 722.36424 232.65622 723.45527 234.32812 724.51367 C 236.00002 725.57206 237.21998 727.29486 237.83008 732.1543 C 239.05028 741.87318 234.8105 760.72487 227.5957 779.98438 C 213.1661 818.50338 188.87891 859.98438 188.87891 859.98438 L 173.28125 886.53125 L 201.50195 874.21484 C 201.50195 874.21484 235.72664 859.28197 277.14844 836.10938 C 309.35763 818.09063 345.99476 795.23554 374.94531 769.74219 C 380.0257 772.88844 385.12319 775.98582 390.24219 779.01367 C 317.73264 852.80467 133.45508 929.24609 133.45508 929.24609 C 167.23108 859.69691 203.89873 789.27155 169.45312 765.88477 C 169.45312 765.88477 189.10673 705.2848 222.38086 649.62109 z M 248.42188 674.48828 C 281.4042 704.55714 318.00335 732.88235 357.23438 758.48828 C 330.75183 780.81006 297.17355 801.98957 267.38477 818.6543 C 249.58807 828.61025 233.77749 836.6345 220.96289 842.91602 C 229.01069 827.36607 238.79472 807.09963 246.32422 787 C 253.99852 766.5138 259.80683 746.65149 257.67383 729.66211 C 256.60733 721.16741 252.80149 712.53781 245.02539 707.61523 C 241.59529 705.44385 237.70165 704.25812 233.53125 703.67188 C 236.85456 696.20884 241.75407 686.12006 248.42188 674.48828 z "
       transform="translate(3179.8084,40.378951)"
       id="path4300" />
  </g>
  <g
     inkscape:groupmode="layer"
     id="layer7"
     inkscape:label="Top Text"
     transform="translate(-3176.6245,-33.463521)" />
  <g
     inkscape:groupmode="layer"
     id="layer2"
     inkscape:label="ref"
     style="display:none"
     transform="translate(-3179.8084,-40.378951)"
     sodipodi:insensitive="true">
    <path
       inkscape:connector-curvature="0"
       id="path3914"
       d="m 524.24315,105.07524 c 221.93,11.6312 392.4118,200.9696 380.7809,422.8995 -11.6313,221.9298 -200.9697,392.4113 -422.9,380.7805 -221.9296,-11.631 -392.411099,-200.9692 -380.7803,-422.8994 11.6312,-221.9298 200.9694,-392.410899 422.8994,-380.7806 z"
       style="color:#000000;display:inline;overflow:visible;visibility:visible;fill:none;stroke:#000000;stroke-width:5;stroke-opacity:1;marker:none;enable-background:accumulate" />
    <circle
       style="color:#000000;display:inline;overflow:visible;visibility:visible;fill:none;stroke:#000000;stroke-width:4.15304089;stroke-miterlimit:4;stroke-dasharray:none;stroke-opacity:1;marker:none;enable-background:accumulate"
       id="path3902"
       transform="matrix(-0.80559114,0.89469964,0.89469964,0.80559114,2584.2006,-3409.8759)"
       cx="3574.2856"
       cy="892.36218"
       r="380" />
    <path
       style="color:#000000;display:inline;overflow:visible;visibility:visible;fill:none;stroke:#000000;stroke-width:5;stroke-opacity:1;marker:none;enable-background:accumulate"
       d="m 120.48695,631.26104 c -68.674099,-211.3576 46.9937,-438.3684 258.351,-507.0427 211.3579,-68.674199 438.3686,46.9935 507.0428,258.3512 68.6743,211.3575 -46.9934,438.3683 -258.3511,507.0427 -211.3574,68.6743 -438.3682,-46.9937 -507.0427,-258.3512 z"
       id="path3900"
       inkscape:connector-curvature="0" />
    <circle
       style="color:#000000;display:inline;overflow:visible;visibility:visible;fill:none;stroke:#000000;stroke-width:15.51020432;stroke-miterlimit:4;stroke-dasharray:none;stroke-opacity:1;marker:none;enable-background:accumulate"
       id="path3896"
       transform="matrix(0.96710526,0,0,0.96710526,-2953.5266,-356.0929)"
       cx="3574.2856"
       cy="892.36218"
       r="380" />
    <circle
       transform="matrix(1.2960526,0,0,1.2960526,-4129.2783,-649.63307)"
       id="path3898"
       style="color:#000000;display:inline;overflow:visible;visibility:visible;fill:none;stroke:#000000;stroke-width:11.57360458;stroke-miterlimit:4;stroke-dasharray:none;stroke-opacity:1;marker:none;enable-background:accumulate"
       cx="3574.2856"
       cy="892.36218"
       r="380" />
  </g>
</svg>
